# xmcd
#
# Track frame offsets:
# 150
# 23979
# 48195
# 66748
# 84577
# 107116
# 127385
# 146756
# 164870
# 181577
# 197941
# 218676
# 231449
# 246869
# 263724
# 285253
# 308122
#
# Disc length: 4363 seconds
#
# Revision: 0
# Processed by: cddbd v1.5.1PL2 Copyright (c) Steve Scherf et al.
# Submitted via: Audion 3.0.2 (http://www.panic.com/audion/)
#
DISCID=07110911
DTITLE=xv - radiohead everlast
DYEAR=1900
DGENRE=
TTITLE0=sd
TTITLE1=sd
TTITLE2=zx
TTITLE3=zx
TTITLE4=zv
TTITLE5=zv
TTITLE6=zv
TTITLE7=zxv
TTITLE8=z
TTITLE9=zxv
TTITLE10=z
TTITLE11=zv
TTITLE12=zv
TTITLE13=zv
TTITLE14=zxv
TTITLE15=zv
TTITLE16=xv
EXTD=
EXTT0=
EXTT1=
EXTT2=
EXTT3=
EXTT4=
EXTT5=
EXTT6=
EXTT7=
EXTT8=
EXTT9=
EXTT10=
EXTT11=
EXTT12=
EXTT13=
EXTT14=
EXTT15=
EXTT16=
PLAYORDER=
